<svg width="122" height="25" xmlns="http://www.w3.org/2000/svg"><title>Worten</title><path d="m17.113 13.843-7.015 10.732L.58 9.79a2.981 2.981 0 0 1 .883-4.111 2.951 2.951 0 0 1 4.092.885l4.548 7.087 4.52-7.074.02-.028c.043-.064.087-.122.126-.174l.058-.077a1.96 1.96 0 0 1 .107-.12l.046-.052.046-.05c.018-.018.038-.036.064-.059l.065-.06c.035-.032.065-.06.095-.084l.081-.06c.059-.045.11-.084.173-.125l.026-.017.05-.03c.055-.032.108-.065.165-.095l.065-.032.056-.026c.045-.021.09-.042.134-.06.046-.02.091-.035.152-.057.048-.016.08-.028.113-.037a2.961 2.961 0 0 1 2.097.148l.051.025c.085.038.166.083.244.134l.05.028.025.016c.065.043.115.08.178.128l.077.058c.037.03.07.06.11.097l.067.061.048.045.055.06.052.058c.038.04.068.073.094.106l.062.082c.045.06.083.111.126.175l.012.017 4.53 7.08 4.542-7.088a2.952 2.952 0 0 1 4.092-.885 2.982 2.982 0 0 1 .883 4.11l-9.517 14.787-7.031-10.733h.001Zm27.14-8.849c-5.678 0-10.297 4.453-10.297 9.926 0 5.475 4.62 9.93 10.297 9.93 5.678 0 10.297-4.455 10.297-9.93 0-5.473-4.619-9.926-10.297-9.926m0 14.807c-2.52 0-4.572-2.19-4.572-4.88s2.051-4.88 4.572-4.88c2.523 0 4.575 2.19 4.575 4.88s-2.052 4.88-4.575 4.88M56.24 12.28v12.166h5.967v-12.55c0-.51.376-1.319 1.386-1.319l1.907-.003 1.967-.003V5.394h-4.214c-3.387 0-7.013 2.767-7.013 6.885m21.404-1.675a2.617 2.617 0 0 0 2.613-2.61 2.61 2.61 0 0 0-2.613-2.6h-2.778l-.001-2.582a2.795 2.795 0 0 0-2.8-2.785 2.795 2.795 0 0 0-2.798 2.785v15.255l.009.407h.007c.24 3.921 3.477 5.97 6.606 5.97h4.213v-5.17l-.406-.006c-.191-.002-3.279-.007-3.466-.007-1.038 0-1.387-1.03-1.387-1.499v-7.155c.78-.003 1.778-.003 2.801-.003m41.98-2.056c-1.288-1.62-3.659-3.55-7.635-3.55-3.974 0-6.343 1.93-7.631 3.55-1.68 2.111-2.278 4.6-2.278 6.224v9.673h5.974v-9.477c0-2.164 1.352-4.358 3.934-4.363 2.588.005 3.942 2.199 3.942 4.363v9.477h5.972v-9.673c0-1.625-.598-4.113-2.277-6.224M90.617 4.994c-5.529 0-10.027 4.453-10.027 9.926 0 5.475 4.498 9.93 10.027 9.93 3.868 0 7.432-2.247 9.08-5.723l.278-.584H94.29l-.122.135c-.777.861-2.171 1.418-3.552 1.418-2.116 0-3.713-1.262-4.317-3.39h14.186l.052-.35c.07-.474.106-.957.106-1.436 0-5.473-4.498-9.926-10.027-9.926h.001Zm-4.165 7.517c.5-1.664 2.138-2.764 4.165-2.764 2.009 0 3.68 1.124 4.164 2.764h-8.329Z" fill="#FFF" fill-rule="nonzero"/></svg>
